# xmcd
#
# Track frame offsets:
#	150
#	19082
#	43737
#	63729
#	88082
#	107735
#	128628
#	151908
#	170141
#	187333
#	209570
#	228980
#	245228
#
# Disc length: 3465 seconds
#
# Revision: 0
# Processed by: cddbd v1.5.1PL2 Copyright (c) Steve Scherf et al.
# Submitted via: MusicManager 7.0.3.0 
#
DISCID=c10d870d
DTITLE=Rodney Crowell - Fate's right hand
DYEAR=2003
DGENRE=country
TTITLE0=Still learning how to fly
TTITLE1=Fate's right hand
TTITLE2=Earthbound
TTITLE3=Time to go inward
TTITLE4=The man in me
TTITLE5=Ridin' out the storm
TTITLE6=Preachin' to the choir
TTITLE7=It's a different world now
TTITLE8=Come on funny feelin'
TTITLE9=Adam's song
TTITLE10=This too will pass
TTITLE11=Nine million bicycles
TTITLE12=Other side of the world
EXTD=
EXTT0=
EXTT1=
EXTT2=
EXTT3=
EXTT4=
EXTT5=
EXTT6=
EXTT7=
EXTT8=
EXTT9=
EXTT10=
EXTT11=
EXTT12=
PLAYORDER=
